<?xml version="1.0" encoding="UTF-8"?>
<svg xmlns="http://www.w3.org/2000/svg" xmlns:xlink="http://www.w3.org/1999/xlink" viewBox="0 0 64 64" width="64px" height="64px">
<g id="surface20658906">
<path style="fill-rule:nonzero;fill:rgb(0%,0%,0%);fill-opacity:1;stroke-width:1;stroke-linecap:butt;stroke-linejoin:round;stroke:rgb(80.000001%,80.000001%,80.000001%);stroke-opacity:1;stroke-miterlimit:10;" d="M 133.779841 28.662075 C 139.049987 28.662075 143.337922 32.95001 143.337922 38.220156 L 143.337922 69.281278 C 143.337922 74.551424 139.049987 78.828798 133.779841 78.828798 C 128.499133 78.828798 124.22176 74.551424 124.22176 69.281278 L 124.22176 61.286287 L 97.533064 87.974983 C 95.674255 89.844354 93.224006 90.773758 90.773758 90.773758 C 88.334071 90.773758 85.883823 89.844354 84.025014 87.974983 C 80.286273 84.246804 80.286273 78.195113 84.025014 74.466933 L 110.71371 47.778237 L 102.718719 47.778237 C 97.448573 47.778237 93.171199 43.500864 93.171199 38.220156 C 93.171199 32.95001 97.448573 28.662075 102.718719 28.662075 Z M 74.055038 33.446397 C 79.335746 33.446397 83.613119 37.72377 83.613119 43.004477 C 83.613119 48.274623 79.335746 52.551997 74.055038 52.551997 L 54.949438 52.551997 C 53.629261 52.551997 52.551997 53.629261 52.551997 54.949438 L 52.551997 117.050559 C 52.551997 118.370736 53.629261 119.448 54.949438 119.448 L 117.050559 119.448 C 118.370736 119.448 119.448 118.370736 119.448 117.050559 L 119.448 97.944959 C 119.448 92.664251 123.725374 88.386878 128.99552 88.386878 C 134.276227 88.386878 138.5536 92.664251 138.5536 97.944959 L 138.5536 117.050559 C 138.5536 128.911028 128.911028 138.5536 117.050559 138.5536 L 54.949438 138.5536 C 43.088969 138.5536 33.446397 128.911028 33.446397 117.050559 L 33.446397 54.949438 C 33.446397 43.088969 43.088969 33.446397 54.949438 33.446397 Z M 74.055038 33.446397 " transform="matrix(0.36986,0,0,0.36986,0.192,0.192)"/>
<path style=" stroke:none;fill-rule:nonzero;fill:rgb(80.392158%,36.078432%,36.078432%);fill-opacity:1;" d="M 38.183594 10.792969 C 36.234375 10.792969 34.652344 12.378906 34.652344 14.328125 C 34.652344 16.28125 36.234375 17.863281 38.183594 17.863281 L 41.140625 17.863281 L 31.269531 27.734375 C 29.886719 29.113281 29.886719 31.351562 31.269531 32.730469 C 31.957031 33.421875 32.863281 33.765625 33.765625 33.765625 C 34.671875 33.765625 35.578125 33.421875 36.265625 32.730469 L 46.136719 22.859375 L 46.136719 25.816406 C 46.136719 27.765625 47.71875 29.347656 49.671875 29.347656 C 51.621094 29.347656 53.207031 27.765625 53.207031 25.816406 L 53.207031 14.328125 C 53.207031 12.378906 51.621094 10.792969 49.671875 10.792969 Z M 20.515625 12.5625 C 16.128906 12.5625 12.5625 16.128906 12.5625 20.515625 L 12.5625 43.484375 C 12.5625 47.871094 16.128906 51.4375 20.515625 51.4375 L 43.484375 51.4375 C 47.871094 51.4375 51.4375 47.871094 51.4375 43.484375 L 51.4375 36.417969 C 51.4375 34.464844 49.855469 32.882812 47.902344 32.882812 C 45.953125 32.882812 44.371094 34.464844 44.371094 36.417969 L 44.371094 43.484375 C 44.371094 43.972656 43.972656 44.371094 43.484375 44.371094 L 20.515625 44.371094 C 20.027344 44.371094 19.628906 43.972656 19.628906 43.484375 L 19.628906 20.515625 C 19.628906 20.027344 20.027344 19.628906 20.515625 19.628906 L 27.582031 19.628906 C 29.535156 19.628906 31.117188 18.046875 31.117188 16.097656 C 31.117188 14.144531 29.535156 12.5625 27.582031 12.5625 Z M 20.515625 12.5625 "/>
</g>
</svg>
