<?xml version="1.0" encoding="UTF-8"?>
<svg xmlns="http://www.w3.org/2000/svg" xmlns:xlink="http://www.w3.org/1999/xlink" viewBox="0 0 48 48" width="48px" height="48px">
<g id="surface20628367">
<path style=" stroke:none;fill-rule:nonzero;fill:rgb(80.392158%,36.078432%,36.078432%);fill-opacity:1;" d="M 35.480469 5.980469 C 34.664062 5.980469 33.933594 6.476562 33.628906 7.230469 C 33.320312 7.984375 33.503906 8.847656 34.085938 9.414062 L 35.179688 10.507812 C 23.476562 10.679688 14 20.257812 14 32 C 13.988281 32.722656 14.367188 33.390625 14.992188 33.753906 C 15.613281 34.121094 16.386719 34.121094 17.007812 33.753906 C 17.632812 33.390625 18.011719 32.722656 18 32 C 18 22.425781 25.628906 14.703125 35.15625 14.515625 L 34.085938 15.585938 C 33.5625 16.085938 33.351562 16.832031 33.535156 17.535156 C 33.71875 18.234375 34.265625 18.78125 34.964844 18.964844 C 35.667969 19.148438 36.414062 18.9375 36.914062 18.414062 L 41.238281 14.089844 C 41.734375 13.710938 42.027344 13.121094 42.027344 12.496094 C 42.023438 11.867188 41.730469 11.277344 41.230469 10.898438 L 36.914062 6.585938 C 36.535156 6.199219 36.019531 5.980469 35.480469 5.980469 Z M 12.5 6 C 8.933594 6 6 8.933594 6 12.5 L 6 35.5 C 6 39.066406 8.933594 42 12.5 42 L 35.5 42 C 39.066406 42 42 39.066406 42 35.5 L 42 28 C 42.011719 27.277344 41.632812 26.609375 41.007812 26.246094 C 40.386719 25.878906 39.613281 25.878906 38.992188 26.246094 C 38.367188 26.609375 37.988281 27.277344 38 28 L 38 35.5 C 38 36.902344 36.902344 38 35.5 38 L 12.5 38 C 11.097656 38 10 36.902344 10 35.5 L 10 12.5 C 10 11.097656 11.097656 10 12.5 10 L 20 10 C 20.722656 10.011719 21.390625 9.632812 21.753906 9.007812 C 22.121094 8.386719 22.121094 7.613281 21.753906 6.992188 C 21.390625 6.367188 20.722656 5.988281 20 6 Z M 12.5 6 "/>
</g>
</svg>
